<svg xmlns="http://www.w3.org/2000/svg" xmlns:xlink="http://www.w3.org/1999/xlink" width="500" zoomAndPan="magnify" viewBox="0 0 375 374.999991" height="500" preserveAspectRatio="xMidYMid meet" version="1.0"><defs><clipPath id="4c7c28d4d1"><path d="M 38 38 L 336.75 38 L 336.75 337.5 L 38 337.5 Z M 38 38 " clip-rule="nonzero"/></clipPath></defs><g clip-path="url(#4c7c28d4d1)"><path fill="#000000" d="M 330.539062 152.714844 C 330.582031 152.515625 330.613281 152.304688 330.628906 152.09375 L 336.5 110.453125 C 336.570312 110.121094 336.613281 109.777344 336.613281 109.425781 C 336.613281 106.753906 334.445312 104.582031 331.773438 104.582031 L 293.667969 104.582031 C 293.660156 104.582031 293.652344 104.582031 293.644531 104.582031 C 293.636719 104.582031 293.628906 104.582031 293.621094 104.582031 L 255.5625 104.582031 C 255.546875 104.582031 255.53125 104.582031 255.515625 104.582031 C 255.503906 104.582031 255.488281 104.582031 255.472656 104.582031 L 217.457031 104.582031 C 217.433594 104.582031 217.410156 104.582031 217.390625 104.582031 C 217.367188 104.582031 217.34375 104.582031 217.320312 104.582031 L 179.351562 104.582031 C 179.320312 104.582031 179.292969 104.574219 179.261719 104.574219 C 179.230469 104.574219 179.203125 104.582031 179.171875 104.582031 L 141.238281 104.582031 C 141.199219 104.582031 141.164062 104.574219 141.132812 104.574219 C 141.097656 104.574219 141.058594 104.582031 141.027344 104.582031 L 108.132812 104.582031 L 87.980469 51.515625 C 87.40625 49.980469 86.125 48.917969 84.660156 48.527344 L 44.183594 38.171875 C 41.601562 37.515625 38.96875 39.078125 38.308594 41.671875 C 37.652344 44.261719 39.214844 46.894531 41.804688 47.546875 L 79.839844 57.28125 L 107.226562 129.386719 L 132.28125 195.375 C 132.34375 195.585938 132.425781 195.789062 132.515625 195.988281 L 136.496094 206.472656 C 136.5625 206.6875 136.644531 206.898438 136.734375 207.109375 L 147.808594 236.269531 L 136.511719 247.09375 C 126.699219 256.492188 120.355469 265.460938 117.503906 273.097656 C 115.664062 278.03125 115.214844 282.554688 116.167969 286.460938 C 117.207031 290.78125 119.824219 294.21875 124.007812 296.523438 C 125.398438 297.289062 126.957031 297.925781 128.691406 298.410156 C 125.0625 302.558594 122.855469 307.980469 122.855469 313.917969 C 122.855469 320.265625 125.375 326.039062 129.476562 330.28125 L 129.753906 330.589844 C 134.019531 334.855469 139.90625 337.492188 146.410156 337.492188 C 152.910156 337.492188 158.804688 334.847656 163.0625 330.589844 L 163.0625 330.566406 C 167.320312 326.300781 169.960938 320.40625 169.960938 313.917969 C 169.960938 308.539062 168.152344 303.585938 165.105469 299.617188 L 265.761719 299.617188 C 262.910156 303.515625 261.21875 308.316406 261.21875 313.511719 C 261.21875 319.859375 263.738281 325.632812 267.839844 329.878906 L 268.117188 330.183594 C 272.382812 334.453125 278.269531 337.089844 284.773438 337.089844 C 291.273438 337.089844 297.167969 334.445312 301.425781 330.183594 L 301.425781 330.164062 C 305.683594 325.894531 308.324219 320.003906 308.324219 313.511719 C 308.324219 308.324219 306.632812 303.515625 303.78125 299.617188 L 312.761719 299.617188 C 315.433594 299.617188 317.601562 297.445312 317.601562 294.773438 C 317.601562 292.097656 315.433594 289.929688 312.761719 289.929688 C 312.761719 289.929688 138.328125 289.929688 138.328125 289.929688 C 134.078125 289.929688 130.859375 289.261719 128.667969 288.050781 C 126.976562 287.113281 125.9375 285.796875 125.550781 284.1875 C 125.0625 282.164062 125.390625 279.542969 126.542969 276.453125 C 128.902344 270.140625 134.453125 262.429688 143.207031 254.042969 L 155.597656 242.167969 L 179.417969 239.789062 C 179.636719 239.78125 179.851562 239.757812 180.070312 239.722656 L 217.554688 235.976562 C 217.769531 235.96875 217.980469 235.949219 218.191406 235.917969 L 255.683594 232.175781 C 255.898438 232.167969 256.109375 232.144531 256.308594 232.113281 L 293.808594 228.371094 C 294.019531 228.363281 294.230469 228.339844 294.429688 228.3125 L 316.269531 226.132812 C 318.515625 225.996094 320.429688 224.289062 320.753906 221.976562 L 324.558594 194.996094 C 324.605469 194.792969 324.636719 194.582031 324.648438 194.367188 Z M 156.238281 323.746094 C 153.734375 326.253906 150.253906 327.8125 146.421875 327.8125 C 142.59375 327.8125 139.121094 326.253906 136.605469 323.746094 L 136.382812 323.535156 C 134.003906 321.042969 132.542969 317.652344 132.542969 313.917969 C 132.542969 310.066406 134.09375 306.59375 136.605469 304.09375 C 139.113281 301.585938 142.59375 300.027344 146.421875 300.027344 C 150.253906 300.027344 153.726562 301.585938 156.238281 304.09375 L 156.464844 304.304688 C 158.84375 306.796875 160.300781 310.179688 160.300781 313.917969 C 160.300781 317.773438 158.746094 321.246094 156.238281 323.746094 Z M 294.585938 303.6875 L 294.8125 303.898438 C 297.191406 306.390625 298.652344 309.777344 298.652344 313.511719 C 298.652344 317.359375 297.101562 320.835938 294.585938 323.335938 C 292.082031 325.84375 288.601562 327.398438 284.773438 327.398438 C 280.941406 327.398438 277.46875 325.84375 274.957031 323.335938 L 274.730469 323.125 C 272.351562 320.632812 270.890625 317.242188 270.890625 313.503906 C 270.890625 309.65625 272.441406 306.183594 274.957031 303.683594 C 277.460938 301.171875 280.941406 299.617188 284.773438 299.617188 C 288.601562 299.625 292.074219 301.179688 294.585938 303.6875 Z M 156.660156 232.382812 L 145.972656 204.25 L 145.972656 198.835938 L 174.429688 198.835938 L 174.429688 230.609375 Z M 250.675781 146.859375 L 222.222656 146.859375 L 222.222656 114.253906 L 250.675781 114.253906 C 250.675781 120.671875 250.675781 132.824219 250.675781 146.859375 Z M 260.359375 114.261719 L 288.804688 114.261719 L 288.804688 146.867188 L 260.351562 146.867188 L 260.351562 114.261719 Z M 222.230469 156.550781 L 250.683594 156.550781 C 250.683594 167.375 250.683594 178.753906 250.683594 189.15625 L 222.230469 189.15625 Z M 212.554688 189.148438 L 184.109375 189.148438 L 184.109375 156.542969 L 212.554688 156.542969 Z M 212.554688 146.859375 L 184.109375 146.859375 L 184.109375 114.253906 L 212.554688 114.253906 Z M 174.429688 146.859375 L 145.972656 146.859375 L 145.972656 114.253906 L 174.429688 114.253906 Z M 174.429688 156.550781 L 174.429688 189.15625 L 145.972656 189.15625 L 145.972656 156.550781 Z M 136.300781 178.761719 L 127.859375 156.542969 L 136.300781 156.542969 Z M 184.101562 198.828125 L 212.546875 198.828125 L 212.546875 226.796875 L 184.101562 229.636719 Z M 222.230469 198.828125 L 250.683594 198.828125 C 250.683594 209.332031 250.683594 218.054688 250.683594 222.988281 L 222.230469 225.832031 Z M 260.359375 198.828125 L 288.804688 198.828125 L 288.804688 219.183594 L 260.351562 222.03125 L 260.351562 198.828125 Z M 260.359375 189.148438 L 260.359375 156.542969 L 288.804688 156.542969 L 288.804688 189.148438 Z M 298.484375 156.550781 L 320.25 156.550781 L 315.648438 189.15625 L 298.484375 189.15625 Z M 321.613281 146.859375 L 298.476562 146.859375 L 298.476562 114.253906 L 326.214844 114.253906 Z M 136.300781 114.261719 L 136.300781 146.867188 L 124.1875 146.867188 L 116.257812 125.996094 L 111.804688 114.269531 L 136.300781 114.269531 Z M 298.484375 218.21875 L 298.484375 198.828125 L 314.289062 198.828125 L 311.734375 216.894531 Z M 298.484375 218.21875 " fill-opacity="1" fill-rule="nonzero"/></g></svg>